<svg xmlns="http://www.w3.org/2000/svg" width="600" height="800" viewBox="0 0 600 800">
  <defs>
    <linearGradient id="bgp31" x1="0%" y1="0%" x2="0%" y2="100%">
      <stop offset="0%" stop-color="#FBF8F2"/>
      <stop offset="100%" stop-color="#FBF8F2" stop-opacity="0.85"/>
    </linearGradient>
    <pattern id="patp3main" width="34.0" height="34.0" patternUnits="userSpaceOnUse">
          <path d="M0 17.0 L17.0 0 L34.0 17.0 L17.0 34.0 Z" fill="none" stroke="#5C5A52" stroke-width="0.9" opacity="0.4"/>
          <circle cx="17.0" cy="17.0" r="1.8" fill="#5C5A52" opacity="0.45"/>
        </pattern>
  </defs>
  <rect width="600" height="800" fill="url(#bgp31)"/>
  
  <!-- outer hairline frame -->
  <rect x="28" y="28" width="544" height="744" fill="none" stroke="#5C5A52" stroke-width="1" opacity="0.55"/>
  <rect x="34" y="34" width="532" height="732" fill="none" stroke="#5C5A52" stroke-width="0.5" opacity="0.3"/>

  <!-- pattern panel -->
  <rect x="60" y="150" width="480" height="520" fill="url(#patp3main)" stroke="#5C5A52" stroke-width="1.5" opacity="0.97"/>

  <!-- corner ornaments -->
  <path d="M 60 150 L 60 178 M 60 150 L 88 150" stroke="#5C5A52" stroke-width="2" fill="none"/>
  <path d="M 540 150 L 540 178 M 540 150 L 512 150" stroke="#5C5A52" stroke-width="2" fill="none"/>
  <path d="M 60 670 L 60 642 M 60 670 L 88 670" stroke="#5C5A52" stroke-width="2" fill="none"/>
  <path d="M 540 670 L 540 642 M 540 670 L 512 670" stroke="#5C5A52" stroke-width="2" fill="none"/>

  <!-- brand mark -->
  <text x="300" y="96" text-anchor="middle" font-family="Georgia, 'Times New Roman', serif" font-size="26" letter-spacing="4" fill="#5C5A52">GUL AHMED</text>
  <line x1="260" y1="112" x2="340" y2="112" stroke="#5C5A52" stroke-width="1" opacity="0.5"/>

  <!-- fabric label -->
  <text x="300" y="712" text-anchor="middle" font-family="Georgia, serif" font-size="15" letter-spacing="1" fill="#5C5A52" opacity="0.85">Pure Lawn</text>
  <text x="300" y="734" text-anchor="middle" font-family="Arial, sans-serif" font-size="10" letter-spacing="3" fill="#5C5A52" opacity="0.4">HAND-FINISHED · UNSTITCHED</text>

</svg>