<svg xmlns="http://www.w3.org/2000/svg" width="600" height="800" viewBox="0 0 600 800">
  <defs>
    <pattern id="patp7close" width="145.6" height="145.6" patternUnits="userSpaceOnUse" patternTransform="rotate(6)">
          <circle cx="36.4" cy="36.4" r="7.800000000000001" fill="#7A3B4F" opacity="0.55"/>
          <path d="M 36.4 15.600000000000001 C 46.800000000000004 23.400000000000002, 46.800000000000004 31.200000000000003, 36.4 36.4 C 26.0 31.200000000000003, 26.0 23.400000000000002, 36.4 15.600000000000001 Z" fill="#B9708A" opacity="0.5"/>
          <path d="M 36.4 57.2 C 46.800000000000004 49.4, 46.800000000000004 41.6, 36.4 36.4 C 26.0 41.6, 26.0 49.4, 36.4 57.2 Z" fill="#B9708A" opacity="0.4"/>
          <circle cx="36.4" cy="36.4" r="20.8" fill="none" stroke="#7A3B4F" stroke-width="2.08" opacity="0.3"/>
          <circle cx="109.2" cy="104.0" r="6.24" fill="#7A3B4F" opacity="0.45"/>
          <circle cx="109.2" cy="104.0" r="15.600000000000001" fill="none" stroke="#B9708A" stroke-width="2.08" opacity="0.35"/>
        </pattern>
  </defs>
  
  <rect x="0" y="0" width="600" height="800" fill="url(#patp7close)"/>
  <rect x="0" y="0" width="600" height="800" fill="#F7E6EC" opacity="0.06"/>
  <rect x="24" y="24" width="552" height="752" fill="none" stroke="#7A3B4F" stroke-width="1.25" opacity="0.6"/>
  <rect x="24" y="700" width="552" height="76" fill="#F7E6EC" opacity="0.92"/>
  <rect x="24" y="700" width="552" height="76" fill="none" stroke="#7A3B4F" stroke-width="1" opacity="0.4"/>
  <text x="300" y="732" text-anchor="middle" font-family="Georgia, serif" font-size="15" letter-spacing="1" fill="#7A3B4F">Pure Lawn</text>
  <text x="300" y="754" text-anchor="middle" font-family="Arial, sans-serif" font-size="10" letter-spacing="3" fill="#7A3B4F" opacity="0.55">FABRIC CLOSE-UP</text>

</svg>